<?xml version="1.0" encoding="utf-8"?>
<!-- Generator: Adobe Illustrator 16.0.0, SVG Export Plug-In . SVG Version: 6.00 Build 0)  -->
<!DOCTYPE svg PUBLIC "-//W3C//DTD SVG 1.1//EN" "http://www.w3.org/Graphics/SVG/1.1/DTD/svg11.dtd">
<svg version="1.1" id="Layer_1" xmlns="http://www.w3.org/2000/svg" xmlns:xlink="http://www.w3.org/1999/xlink" x="0px" y="0px"
	 width="54.19px" height="67.93px" viewBox="0 0 54.19 67.93" enable-background="new 0 0 54.19 67.93" xml:space="preserve">
<g>
	<path fill="#205127" d="M26.334,32.367c4.218,0.122,7.736-3.199,7.858-7.419c0.123-4.217-3.199-7.737-7.416-7.858
		c-4.22-0.123-7.738,3.196-7.86,7.416C18.793,28.725,22.115,32.244,26.334,32.367L26.334,32.367z"/>
	<path fill="#205127" d="M12.056,29.078c1.397-0.024,5.832,0.677,8.755,2.926c2.924,2.246,4.884,4.813,5.673,6.141
		c0.242,0.391,0.517,0.843,0.595,1.387c0.112-0.539,0.286-1.043,0.483-1.323c0.535-0.843,2.946-3.963,4.151-4.998
		c2.187-1.877,4.624-3.715,10.555-4.242l-0.043,8.044c-1.08,0.032-3.362,0.667-5.347,2.325c-2.018,1.689-4.246,4.965-4.948,7.298
		c-0.705,2.332-0.824,4.271-0.863,5.667l-0.104,15.61l-7.537,0.036L23.4,52.366c-0.021-1.464-0.313-4.462-1.1-5.948
		c-0.784-1.485-2.491-5.568-5.568-7.537c-0.937-0.6-2.363-1.85-4.653-1.854L12.056,29.078L12.056,29.078z"/>
	<path fill="#205127" d="M27.037,9.411c0.198,0.248,0.534,0.616,0.892,0.858c0.453,0.307,6.121,3.917,11.772,9.591
		c1.776,1.785,6.574,7.54,6.602,14.661c0.023,6.361-3.575,10.936-4.006,11.395c-1.349,1.508-6.24,5.425-9.093,5.776l-0.04,8.271
		c3.54-0.693,9.507-2.992,12.889-6.412c3.383-3.425,6.196-7.535,7.459-12.721c1.453-5.965,0.387-12.757-1.453-16.68
		C49.59,18.89,45.366,13.919,40.055,9.67L27.012,0L14.015,9.736C8.726,14.01,4.526,19.002,2.081,24.272
		C0.26,28.204-0.774,35.002,0.707,40.96c1.288,5.177,4.12,9.278,7.52,12.683c3.398,3.403,9.375,5.678,12.919,6.353l-0.079-8.271
		c-2.853-0.335-7.764-4.23-9.119-5.733c-0.431-0.457-4.052-5.015-4.059-11.375c-0.008-7.12,4.762-12.898,6.53-14.692
		c5.623-5.7,11.276-9.336,11.729-9.646C26.503,10.035,26.838,9.66,27.037,9.411L27.037,9.411z"/>
</g>
</svg>
